<?xml version="1.0" standalone="no"?>
<!DOCTYPE svg PUBLIC "-//W3C//DTD SVG 20010904//EN"
 "http://www.w3.org/TR/2001/REC-SVG-20010904/DTD/svg10.dtd">
<svg version="1.0" xmlns="http://www.w3.org/2000/svg"
 width="1256.000000pt" height="721.000000pt" viewBox="0 0 1256.000000 721.000000"
 preserveAspectRatio="xMidYMid meet">

<g transform="translate(0.000000,721.000000) scale(0.100000,-0.100000)"
fill="#000000" stroke="none">
<path d="M0 3605 l0 -3605 6280 0 6280 0 0 3605 0 3605 -6280 0 -6280 0 0
-3605z m6775 2585 c163 -25 300 -56 440 -100 127 -41 305 -109 305 -118 0 -14
-343 -211 -535 -307 -640 -322 -1179 -468 -1855 -505 -345 -19 -640 -53 -914
-106 -70 -14 -130 -23 -133 -21 -6 7 149 199 236 292 230 246 506 453 796 598
299 148 670 252 1024 286 151 15 474 5 636 -19z m2290 -1320 c1021 -45 1762
-176 2211 -390 148 -70 230 -125 309 -204 199 -203 160 -444 -115 -716 -618
-611 -2303 -1238 -4190 -1560 -421 -71 -1003 -148 -1400 -184 l-155 -14 -140
-65 c-139 -64 -316 -133 -449 -177 -63 -21 -82 -22 -205 -17 -153 6 -300 27
-441 62 -151 38 -368 116 -381 137 -4 7 -94 14 -235 19 -1442 51 -2562 309
-3018 693 -26 22 -70 70 -97 106 -242 320 27 685 775 1055 488 241 1138 465
1920 661 142 35 261 63 263 61 2 -3 -8 -38 -22 -80 -33 -100 -85 -314 -85
-352 0 -17 -6 -38 -12 -47 -7 -8 -71 -30 -143 -48 -359 -90 -784 -224 -1068
-336 -479 -189 -778 -410 -777 -573 1 -199 317 -343 932 -425 377 -51 568 -61
1178 -61 l565 0 150 48 c478 155 885 359 1341 674 348 241 616 400 945 563
174 86 463 214 528 235 l24 7 -6 -208 c-9 -349 -70 -612 -214 -915 -51 -109
-57 -117 -101 -140 -43 -21 -45 -24 -21 -27 32 -4 462 62 809 124 466 83 1033
205 1329 285 426 115 615 173 876 271 189 71 468 205 579 278 151 101 246 220
246 309 1 222 -449 392 -1230 465 -158 15 -456 36 -511 36 -23 0 -30 9 -54 68
-37 89 -108 231 -156 314 -22 36 -39 69 -39 72 0 8 27 8 285 -4z"/>
</g>
</svg>
